<svg width="214" height="182" viewBox="0 0 214 182" fill="none" xmlns="http://www.w3.org/2000/svg">
<path fill-rule="evenodd" clip-rule="evenodd" d="M118.52 0.00273643C101.49 0.158879 85.1916 6.99152 73.1379 19.0452C60.9435 31.2396 54.0928 47.7788 54.0928 65.0243C54.0928 82.2698 60.9435 98.809 73.1379 111.003C85.1952 123.061 101.5 129.894 118.535 130.046C118.621 130.048 118.706 130.048 118.792 130.048H118.976H119.117H146.003C153.275 130.048 159.171 124.153 159.171 116.88C159.171 109.608 153.275 103.712 146.003 103.712H118.792L118.764 103.712C108.631 103.62 98.932 99.5544 91.7595 92.3819C84.5038 85.1262 80.4276 75.2854 80.4276 65.0243C80.4276 54.7632 84.5038 44.9224 91.7595 37.6667C98.9353 30.4909 108.64 26.4249 118.778 26.3363C118.783 26.3363 118.787 26.3363 118.791 26.3363L146.002 26.3363C153.274 26.3363 159.17 20.4407 159.17 13.1682C159.17 5.89559 153.274 7.98053e-06 146.002 7.34475e-06L119.117 0C119.109 0 119.1 1.66412e-06 119.092 4.99217e-06L118.791 4.96589e-06C118.701 4.95798e-06 118.61 0.000918351 118.52 0.00273643Z" fill="#F17F18"/>
<path fill-rule="evenodd" clip-rule="evenodd" d="M13.1682 0C20.4407 0 26.3363 5.89558 26.3363 13.1682L26.3363 116.88C26.3363 116.933 26.336 116.986 26.3354 117.038C26.3577 122.061 27.3577 127.031 29.2801 131.672C31.2244 136.366 34.0742 140.631 37.6669 144.224C41.2595 147.817 45.5246 150.667 50.2186 152.611C54.9127 154.555 59.9437 155.556 65.0245 155.556V155.628H148.182V155.556C158.444 155.556 168.284 151.48 175.54 144.224C182.796 136.968 186.872 127.127 186.872 116.866C186.872 106.605 182.796 96.7645 175.54 89.5088C168.329 82.2979 158.565 78.2274 148.373 78.1774C148.311 78.1782 148.25 78.1786 148.188 78.1786H121.298C114.025 78.1786 108.129 72.2831 108.129 65.0105C108.129 57.7379 114.025 51.8423 121.298 51.8423L148.182 51.8423V51.8421C165.428 51.8421 181.967 58.6928 194.162 70.8872C206.356 83.0817 213.207 99.6208 213.207 116.866C213.207 134.112 206.356 150.651 194.162 162.845C182.422 174.585 166.656 181.372 150.109 181.862C149.569 181.93 149.018 181.964 148.46 181.964L64.63 181.964C64.0588 181.964 63.4961 181.928 62.9441 181.857C55.1145 181.607 47.3886 179.943 40.1407 176.941C32.2516 173.673 25.0834 168.884 19.0453 162.846C13.0073 156.807 8.21763 149.639 4.94985 141.75C1.69404 133.89 0.0125138 125.467 0.000243079 116.96C8.45079e-05 116.934 5.11016e-06 116.907 5.109e-06 116.88L0 13.1682C0 5.89559 5.89559 0 13.1682 0Z" fill="#F17F18"/>
</svg>
